<svg width="250" height="250" viewBox="0 0 58 58" fill="none" xmlns="http://www.w3.org/2000/svg">
    <path d="M26.0316 0.559912C26.0456 0.826435 25.3404 0.854701 25.0804 0.934894C24.3142 1.1684 23.4591 1.73682 22.7047 1.99627C20.0268 3.36898 17.2107 4.95633 14.4601 6.42339C13.3191 6.90455 12.2602 7.76075 11.1496 8.27492C11.159 8.38106 10.8919 8.28902 10.8779 8.33147C10.3343 9.04141 9.61974 8.77254 8.62871 9.40229C7.58145 9.79382 7.09881 10.3741 6.2624 10.5793C6.12183 10.5651 5.71417 10.1949 5.62046 10.3222C5.42131 10.676 6.27647 10.8741 5.53846 11.1737C5.20109 11.3718 5.13315 11.1879 4.86606 11.0888C4.66691 11.0039 4.13508 10.9732 3.92891 10.952C3.94765 11.4661 4.23347 11.1665 4.21239 12.1053C4.3553 17.6527 4.01326 20.6152 3.66885 25.8466C3.60091 28.6439 3.25885 28.9788 3.29633 31.361C3.38536 31.3421 3.35724 31.4271 3.26353 31.4577C3.07141 31.5544 3.31742 31.736 3.17919 31.8634C3.03159 32.3374 3.01754 33.0427 2.87696 33.6064C2.90742 33.7314 2.67313 34.2503 2.85822 34.3093C2.9941 34.3706 2.99175 34.4438 2.85353 34.4438C2.63798 34.4674 2.79262 34.689 2.68485 34.8872C2.52084 35.9037 2.39901 37.0358 2.21393 38.043C2.13661 38.1562 2.04289 38.7765 2.19518 38.7836C2.15301 38.911 1.88827 39.2836 1.86719 40.3804C1.78519 40.8851 1.60711 41.1374 1.75237 41.5384C1.41734 42.1422 1.40329 43.2413 1.27912 43.7437C1.23226 44.2178 0.515341 45.4726 1.28849 45.5032C5.4588 49.4468 11.2504 54.124 16.9576 56.5981C16.7304 56.4307 18.9912 57.5511 19.5769 57.7067C19.6355 57.702 19.6519 57.6761 19.6379 57.603C19.5582 57.3671 19.9893 57.7162 20.0994 57.5652C20.5961 57.4614 21.47 57.1926 21.8378 57.4992C21.6621 57.8341 22.9202 57.0133 22.9882 57.0746C27.6716 55.5556 32.5752 55.0439 37.3664 54.2561C39.6272 54.1453 40.4801 53.0933 42.2372 51.6074C43.3477 50.8055 44.819 49.8478 45.9061 48.968C48.1576 47.2533 51.2385 45.4019 53.565 43.8593C54.1952 43.6164 55.4932 42.9159 56.1843 42.5031C56.442 42.2932 57.6767 42.1681 57.4026 41.9063C57.2808 41.8427 57.5502 41.6681 57.5291 41.6162C57.5127 41.6044 57.33 41.4913 57.2831 41.4606C57.3792 41.1422 57.6486 41.0691 57.754 40.7506C56.0297 39.3543 53.6446 38.5029 51.6883 37.3047C50.6528 36.8236 49.1487 35.991 48.2045 35.432C48.0639 35.0853 47.7922 35.5004 47.6492 35.1253C47.5649 35.189 47.4384 35.3517 47.347 35.347C47.2627 35.347 47.2603 35.4862 47.3845 33.6253C47.9374 27.1485 48.1108 20.7497 48.5958 14.214C48.4786 12.4804 49.486 10.1948 47.9233 9.41173C46.9065 8.57678 45.8265 7.97066 44.388 7.44469C40.0396 5.60969 35.4218 4.43276 31.1578 2.45152C30.1175 2.07886 28.2831 1.56698 28.1683 0.97025C28.1308 0.616458 27.2077 0.970296 27.2007 0.663677C27.4396 0.477346 26.2729 0.625907 26.315 0.512693C26.2799 0.451369 26.0058 0.408896 26.0292 0.552771L26.0316 0.559912ZM27.8121 2.14725C32.4838 4.44218 37.5444 6.10029 42.3871 7.92585C43.3688 8.2938 44.6925 8.80792 45.5641 9.34805C45.3017 9.56268 45.0955 9.58161 44.7089 9.76322C43.2868 10.1099 42.181 10.8104 40.5855 11.4143C36.1902 13.3106 31.7857 16.1715 27.4677 17.99C26.636 18.2967 24.5977 19.1764 24.0354 19.7496C23.9534 19.9689 23.691 19.7142 23.6231 19.6293C23.4497 19.5586 23.0749 19.2118 22.9038 19.3557C22.8734 19.3981 22.8687 19.3958 22.8874 19.3368C22.9249 19.2047 22.3556 19.1246 22.2736 19.0491C21.7816 18.9406 21.1467 18.6175 20.7367 18.509C18.6726 17.4382 16.3391 16.4287 14.3875 15.0017C12.71 13.8247 11.7939 13.4639 9.6666 12.4497C7.58379 11.603 8.94265 11.6407 10.3249 10.7892C14.8373 8.53441 17.0209 7.05554 21.2451 4.93751C23.5434 3.70396 22.8265 4.09547 25.6731 2.74163C27.0203 2.08829 27.4677 1.96322 27.8098 2.14483L27.8121 2.14725ZM46.9557 11.1028C46.7589 11.6689 47.2955 14.2351 46.3068 13.3271C44.0131 14.2752 41.7077 15.5653 39.4117 16.4828C38.3504 16.7848 37.8584 17.1881 36.9329 17.4405C36.2863 17.3839 36.1551 17.9712 36.1223 17.7141C36.1106 17.457 35.4921 17.9735 35.3726 17.9263C35.0212 17.9735 34.501 18.0702 34.2269 18.3249C33.9341 18.2613 34.0301 18.391 33.7373 18.4877C33.5686 18.6198 33.1516 18.7873 32.8962 18.858C32.519 19.1552 31.9356 19.3109 31.4951 19.5256C30.811 19.7496 30.3987 20.0774 29.5412 20.2519C28.0207 20.4948 27.8707 21.1506 26.5329 21.4548C26.4064 21.502 26.2424 21.4525 26.2612 21.4784C26.1511 21.6459 25.4013 21.8134 25.9753 22.0823C26.2635 22.2096 26.1136 22.2332 25.9753 22.4007C25.31 23.4621 25.331 25.0541 25.1155 26.2735C24.6891 28.6227 24.7008 30.8752 24.5064 33.781C24.6282 37.5076 23.028 43.4867 27.6903 42.9654C29.0914 42.2791 30.8509 41.9087 32.2519 40.9771C33.0016 40.2978 33.6271 40.4676 34.2902 39.8308C34.9462 39.26 34.9907 39.1657 35.6327 39.0289C37.2281 38.4628 38.6268 37.2081 40.1497 36.4439C40.4964 36.2057 41.1361 35.8329 41.4687 35.6301C41.6937 35.4485 41.3024 35.6231 41.457 35.3778C41.5976 35.0924 42.0123 35.3706 42.263 35.189C42.3403 36.4414 42.4504 37.6373 42.4668 38.7694C42.5418 40.4393 42.4363 40.411 42.7011 40.7058C43.0853 40.845 43.7929 40.6893 43.7249 40.0147C43.7577 37.984 43.6476 38.3094 43.247 36.4674C43.1181 35.7362 43.1134 36.2929 42.8628 35.1395C42.8182 34.9201 42.762 35.0287 42.7034 34.9461C42.7409 34.5617 44.4254 34.4083 44.4536 33.9507C44.4442 33.7055 44.7534 33.7219 44.88 33.5238C45.8429 32.5096 45.3087 34.0404 45.3439 34.5923C45.1963 35.5617 45.3837 40.2176 45.1236 40.3521C45.1658 40.3969 45.0627 40.3828 44.9479 40.3309C44.8237 40.2389 44.4629 40.4629 44.388 40.5785C44.3926 40.6799 43.7718 41.1233 43.992 41.1681C42.7456 41.5455 41.8694 42.6351 40.8245 43.0715C38.3059 44.8829 35.4569 46.5434 32.9548 48.4681C30.3682 50.4422 27.0648 52.1946 24.3869 53.9494C22.9132 54.9589 22.2478 55.2019 20.9428 55.992C20.2166 56.7822 19.6308 56.4001 18.8085 55.992C15.0037 54.3952 11.7494 52.1899 8.30305 49.8266C6.05858 48.3218 4.71611 46.4703 2.92615 45.4136C2.57004 45.4207 3.08781 45.2862 3.08547 45.2131C3.31741 44.607 3.48844 43.3829 3.49547 42.8216C3.85393 41.0219 4.20068 39.22 4.37874 37.4958C4.27331 36.7434 4.44902 35.7999 4.74188 34.8942C4.99022 33.604 5.3604 31.0733 5.43537 29.7313C5.78446 24.5117 6.27413 19.0325 6.12887 13.9073C6.09138 13.8294 5.69777 12.4851 6.18041 12.6266C6.56229 12.8389 7.30265 12.1902 7.6822 12.3294C8.52797 12.8412 9.33392 13.3577 10.2851 13.853C14.2821 16.0701 17.8292 18.818 22.0393 20.1789C24.8226 21.403 22.3251 19.5632 24.0846 20.5609C24.3939 21.9124 23.3888 25.757 23.5153 27.4269C23.0514 32.7597 22.953 38.635 22.4282 43.9914C21.9714 47.0694 21.5825 48.2086 21.1678 51.1946C21.1092 51.8857 20.6898 54.124 21.053 54.2514C21.1748 53.8905 21.3435 53.6004 21.4817 53.2443C21.5614 53.2207 21.5567 52.0484 21.709 52.2253C21.805 52.0555 21.6035 53.0862 21.6785 53.2961C21.8402 52.0437 22.051 50.645 22.2923 49.3902C22.3322 48.2935 22.5477 48.1119 22.6578 47.3383C22.4868 47.2817 22.3275 48.5482 22.2502 48.8879C22.2338 49.0365 22.2033 49.1544 22.1822 49.1544C22.0088 48.9704 22.4142 47.7722 22.4306 47.4585C22.5008 46.5717 22.5079 45.3665 22.7023 44.3806C22.9507 42.371 22.9015 40.8333 23.1522 38.7482C23.2178 38.1562 23.3115 37.4651 23.5177 37.1349C23.8152 37.1349 23.7145 35.6065 23.7965 35.4791C23.8363 30.7265 24.586 25.9197 24.5415 21.9596C24.6797 21.6129 24.3189 20.6694 24.6493 20.7472C27.0624 19.6481 30.0051 18.5891 32.2987 17.214C34.1262 16.2093 35.3187 15.306 37.0923 14.4804C37.3336 14.4073 37.7342 14.0158 37.5538 14.3956C37.6147 14.3956 38.7135 13.8294 39.0767 13.6124C40.0138 13.0299 40.9369 12.9049 41.9537 12.3955C43.3876 11.8907 44.5988 11.1005 46.035 10.7821C46.4989 10.7538 47.1572 9.89534 46.9534 11.0982L46.9557 11.1028ZM46.8925 13.9875C46.8925 14.0229 46.8644 14.0724 46.8269 14.103C46.6605 14.2257 46.8363 13.7587 46.8925 13.9875ZM46.7847 14.3908C46.4005 19.6317 46.1334 25.2828 45.6484 30.5119C45.5805 31.0355 45.6063 32.0591 45.4821 32.4035C44.8636 32.1771 42.7808 34.5663 42.352 33.696C42.338 34.13 41.0634 34.6512 41.0142 34.7031C40.3699 35.2008 39.2313 35.8778 38.4956 36.2882C37.5608 36.7174 35.9349 38.0524 34.7752 38.4251C32.6877 39.5124 30.4455 41.2224 28.1261 41.8781C27.5099 42.0149 26.5353 42.831 25.8441 42.1847C25.2256 41.3875 25.3123 38.8024 25.3943 38.1514C25.4857 35.1348 25.7176 32.0569 25.884 29.3043C25.8324 28.0496 26.4884 25.724 26.1464 24.7593C26.2612 24.4291 26.315 24.5942 26.3689 24.6909C26.397 24.4456 26.1534 24.1743 26.3315 23.8677C26.4275 23.5092 26.4275 23.1412 26.5821 22.8464C26.4931 22.8039 26.3104 23.4833 26.1838 23.2899C26.5095 22.2379 26.9289 22.3747 27.8356 22.1695C28.9719 21.6011 30.2745 21.1129 31.5139 20.7497C31.8325 20.5563 32.5283 20.2071 32.854 20.167C32.9407 19.9854 33.1187 20.1058 33.2101 19.9878C33.2382 19.8628 33.5522 19.9477 33.6037 19.8958C34.4589 19.6269 35.2461 18.9334 36.1996 18.8273C36.5628 18.8674 36.9728 18.5278 37.2047 18.4264C37.76 18.2023 38.4207 18.082 38.9876 17.7778C40.8174 17.0466 42.748 16.2494 44.5051 15.3154C44.8612 15.1149 47.026 13.9686 46.7871 14.3884L46.7847 14.3908ZM3.84457 24.7357C3.81411 24.8182 3.81177 24.613 3.84457 24.6531C3.85628 24.6673 3.85863 24.7074 3.84457 24.7357ZM3.94531 31.5685C3.94531 31.5921 3.91719 31.6087 3.8797 31.6087C3.71336 31.5922 3.92188 31.4011 3.94531 31.5685ZM2.99645 35.1372C3.01519 35.2292 2.88867 35.1419 2.88398 35.0994C2.86524 35.0074 2.98942 35.0924 2.99645 35.1372ZM2.67546 36.4579C2.64735 36.4697 2.59582 36.4697 2.5677 36.4579C2.48804 36.4273 2.75278 36.4273 2.67546 36.4579ZM50.3529 37.4628C50.4443 37.5335 50.3482 37.5713 50.2803 37.4911C50.2006 37.4132 50.2475 37.3967 50.3529 37.4628ZM51.0323 37.7576C51.932 38.3001 53.2229 38.9086 54.1062 39.3992C56.3483 40.8709 49.561 37.3 51.0323 37.7576ZM2.34278 38.326C2.31467 38.3826 2.22564 38.3284 2.26079 38.2765C2.2889 38.2199 2.37792 38.2742 2.34278 38.326ZM53.7524 40.7907C53.8204 40.8591 54.0523 40.8686 54.0734 40.97C54.0968 41.2389 53.2159 40.5336 53.7524 40.7907ZM53.9633 41.1044C54.0336 41.1304 54.0547 41.2483 53.9914 41.2483C53.811 41.2648 53.722 41.0054 53.9633 41.1044ZM36.8205 50.8432C37.4156 50.8833 36.3425 51.0012 36.3168 50.921C36.2371 50.7135 36.6705 50.8691 36.8205 50.8432ZM13.7947 53.5083C13.8111 53.5343 13.7947 53.5414 13.7526 53.5249C13.6073 53.4707 13.7596 53.4329 13.7947 53.5083ZM28.6204 55.6594C28.6064 55.683 28.5759 55.7019 28.5501 55.7019C28.4541 55.6783 28.665 55.5486 28.6204 55.6594Z" fill="#3B2C1B"/>
    <path d="M8.85634 21.0256C8.27062 21.7379 7.90279 22.3652 7.38268 23.1554C7.04062 23.5941 6.49004 24.4903 6.23466 24.9738C6.47364 25.2687 6.28621 25.2923 6.6353 25.5281C6.73136 25.6555 9.40692 26.4905 8.67595 26.54C8.29406 26.4975 8.362 27.4905 8.20268 27.724C8.06211 28.4693 7.79737 29.5402 7.61931 30.2737C6.99376 32.6394 6.30026 35.399 5.73563 38.0454C5.43106 40.7012 4.20808 41.8781 7.24913 43.4182C7.18822 43.6494 7.42953 44.4136 7.07342 44.3664C6.57204 44.4088 7.29833 44.8593 7.29365 45.0716C7.38267 45.39 7.66147 45.5339 7.87467 45.6542C9.98326 47.0104 12.7197 48.0033 15.0743 48.7015C16.1895 48.7322 20.2029 51.6522 20.3786 49.4257C20.1021 49.0011 20.5168 47.3241 20.6269 46.6519C20.798 46.2438 20.5543 44.9018 20.6433 44.8051C21.1142 40.6492 21.8569 35.2928 21.4071 31.3492C21.4001 30.6747 21.8241 29.2949 21.5289 28.7689C21.3321 28.7901 21.557 28.3113 21.2572 28.3962C20.7488 28.4811 21.6508 27.7075 21.2501 27.6957C21.0768 27.6532 21.1517 27.1721 21.0604 27.0329C20.8284 26.6296 20.798 27.4787 20.3106 27.3277C20.0857 27.2876 20.0318 27.4976 20.1794 27.5518C20.5074 27.6792 19.1603 29.0873 19.0806 28.9505C18.7667 29.0071 19.0244 29.3538 18.605 29.5189C17.2251 29.6651 15.7069 28.5896 14.3715 28.2405C13.5397 27.8867 12.3191 27.3939 11.6186 26.8915C10.4542 26.4881 10.2831 26.481 9.35303 26.0187C8.85399 25.6036 6.69387 25.4526 7.53028 24.58C7.89811 23.8323 9.07892 22.6648 9.14687 22.0303C9.03909 22.0727 9.17264 21.3393 9.27807 21.4572C11.4335 22.4809 13.4601 23.8276 15.6999 24.6319C16.7823 25.073 17.9865 25.3253 18.9963 25.7852C19.3337 25.8371 20.6738 26.7547 20.4442 26.0471C20.4231 25.8867 20.409 25.8748 20.1654 25.7852C18.1154 24.8016 15.8873 24.2474 13.9989 23.4549C12.1668 22.594 10.6674 21.1152 8.85868 21.0303L8.85634 21.0256ZM9.24526 26.6862C11.9279 27.6368 14.826 29.4576 17.621 29.8916C18.4012 29.8656 18.912 30.6346 19.4649 29.8704C19.6406 29.8539 19.7296 29.6014 19.9077 29.6179C20.0154 29.6226 20.0318 29.6062 20.0365 29.4907C20.2146 28.9977 20.4231 29.2925 20.4653 29.6793C20.3809 33.6654 19.4016 37.7316 18.3426 41.5219C17.6398 40.2813 17.9631 39.5407 18.5066 38.1892C18.933 37.0311 19.2235 35.6725 19.7343 34.5757C19.0314 35.1276 20.1865 32.9861 19.7109 32.854C19.5844 32.8658 19.5516 32.387 19.5422 32.3021C19.4672 31.5332 19.1369 32.2101 18.9682 31.46C18.7269 30.6392 18.5535 31.078 18.7058 31.5945C18.9682 32.2856 17.9537 31.5025 17.4055 31.519C16.2294 31.1463 15.0368 30.7147 13.9474 30.217C12.7971 29.6439 11.0376 28.9717 9.93172 29.96C9.20777 32.6346 8.30342 35.1183 7.76222 37.8001C6.90004 40.8262 7.28896 41.0809 10.0325 42.3899C9.94812 42.8404 10.1192 43.4395 10.2129 44.022C9.23823 43.5739 8.39715 43.206 7.3452 42.6753C7.22102 42.6375 6.9141 42.3356 6.82742 42.3544C6.90005 42.5502 6.40336 42.1587 6.32838 42.0667L6.35884 41.7483C6.68216 40.7247 6.7829 39.3284 7.08747 38.3661C7.53496 36.5099 7.6076 35.3919 8.16286 33.6678C8.76497 31.5922 9.65058 29.066 9.27338 26.9645C9.19372 26.83 9.1 26.8513 9.00394 26.7806C8.79074 26.6721 9.13983 26.5187 9.24292 26.6791L9.24526 26.6862ZM12.6823 30.3138C14.2075 30.9459 15.7233 31.7077 17.361 32.1299C18.9424 32.4318 19.2212 32.5286 18.5769 34.2126C17.696 36.359 16.9533 39.1515 16.1755 41.2554C15.3789 43.9914 12.2582 42.6824 10.4753 41.8451C9.73492 41.6163 7.83485 40.9346 8.40651 39.9629C8.526 39.7223 8.37605 39.0996 8.57988 38.9581C8.80948 38.7128 8.84697 38.2411 8.92429 37.8755C9.30384 36.1608 9.84035 34.7149 10.1215 32.8587C10.152 32.0403 10.4682 31.5402 10.6041 30.7666C10.7213 29.8845 12.0263 30.0827 12.6869 30.3162L12.6823 30.3138ZM18.8299 32.019C18.9283 32.1794 18.7011 32.1818 18.687 32.0757C18.687 31.9436 18.7878 31.9035 18.8299 32.019ZM17.3586 42.0006C17.3586 42.0148 17.3305 42.055 17.293 42.0904C17.1314 42.2625 17.3235 41.8591 17.3586 42.0006ZM17.614 42.8286C17.7054 43.5621 17.1056 43.9583 16.4168 43.9984C15.9623 43.9017 15.3859 44.4796 15.332 43.7979C15.3274 43.6517 15.3391 43.6376 15.5054 43.5881C15.9716 43.5315 16.4051 42.7908 16.808 42.746C17.0962 42.7814 17.7101 42.2884 17.614 42.8262V42.8286ZM10.6065 42.6611C12.0286 42.9795 10.8267 43.9277 11.9817 44.6707C12.5183 45.0079 11.0727 44.4678 10.9673 44.3617C10.8618 44.2603 10.3253 42.4819 10.6041 42.6611H10.6065ZM12.1129 43.2296C13.446 43.7744 13.4835 43.0904 13.2352 44.4348C13.0759 45.2037 12.0426 43.9559 11.9747 43.6611C11.8997 43.2814 11.4522 43.0456 12.1129 43.2319V43.2296ZM14.6854 43.6564C14.8564 44.2225 14.8541 44.9489 14.1208 45.1589C13.4999 45.6306 12.612 44.9702 12.2418 44.8876C12.7338 44.7957 13.9591 45.3971 13.9661 44.2649C13.9943 44.0031 13.9943 43.9984 13.8912 44.0102C13.7951 44.022 13.7881 44.0102 13.7857 43.8286C13.5983 43.3922 14.5776 43.6234 14.6831 43.6588L14.6854 43.6564ZM17.45 44.4017C16.8057 47.659 17.047 46.7816 14.4769 45.7957C14.327 45.6306 14.7299 45.6565 14.8682 45.4395C15.2875 45.1541 15.7795 45.0503 15.653 44.4913C15.8123 44.5055 17.4875 44.3122 17.45 44.4042V44.4017Z" fill="#3B2C1B"/>
    <path d="M40.6138 38.1797C40.5716 38.5713 40.0608 41.4322 40.7215 41.6752C41.7711 42.1917 41.4384 40.628 41.1643 40.2719C41.1104 40.0973 41.0917 39.2128 40.9769 39.1491C40.8387 39.4321 40.7965 38.7292 40.7801 38.4132C40.7848 38.0995 40.7473 38.0288 40.6161 38.1797H40.6138Z" fill="#3B2C1B"/>
    <path d="M5.27238 41.937C5.27238 42.062 5.3614 41.9817 5.35672 41.911C5.35203 41.8119 5.26535 41.8403 5.27238 41.937Z" fill="#3B2C1B"/>
    <path d="M30.9798 45.791C30.5135 45.9136 30.0004 45.7131 29.5787 46.1542C29.0305 46.4821 29.0891 46.5316 28.9672 47.1071C28.8454 47.3241 28.897 47.4397 28.7002 47.5293C28.3347 47.5694 27.9551 48.1212 27.7583 48.0976C27.7489 48.0693 27.4912 47.6307 27.4397 47.7557C27.4912 47.9208 26.3385 47.4325 26.0621 47.7486C25.5396 48.0198 26.0082 47.5151 26.0785 47.343C26.0832 47.1496 25.7294 47.284 25.7809 47.4208C24.5298 48.6709 22.5501 50.1119 26.0012 49.7888C26.7649 49.4798 27.0812 49.152 27.6997 48.7581C28.2691 48.6661 28.3464 48.7015 28.8642 48.3265C29.1102 48.3454 29.307 47.8618 29.2788 48.3666C29.553 48.0552 30.0051 47.942 30.4432 47.7297C30.9329 47.4797 31.5889 47.699 31.9966 47.3806C32.8939 46.7768 32.1137 46.3476 31.4694 46.4585C31.5842 46.3217 31.6241 45.8806 31.3827 45.9254C31.2609 45.9419 31.0946 45.6659 30.9798 45.798V45.791ZM26.3971 48.4987C26.6572 48.5529 25.6169 49.0836 25.6122 48.843C25.6568 48.6189 26.1792 48.4491 26.3971 48.4987Z" fill="#3B2C1B"/>
    <path d="M26.3994 24.2097C26.3666 24.271 26.472 24.2592 26.4674 24.2097C26.4674 24.1437 26.4275 24.1625 26.3994 24.2097Z" fill="#3B2C1B"/>
    <path d="M44.3821 18.3272C38.9325 20.3556 32.6841 22.4429 27.8086 25.0327C32.9207 24.4359 38.5717 21.1221 44.0634 19.1244C45.174 18.6904 44.4805 18.0843 45.8089 18.3626C45.4856 18.3909 45.0474 18.4639 44.7101 18.4286C44.9116 18.1597 44.5859 18.2258 44.3821 18.3272Z" fill="#3B2C1B"/>
    <path d="M30.3968 37.1773C29.4761 37.2787 28.0961 37.5664 27.2925 38.0688C27.1754 38.3966 27.733 38.5475 27.7564 38.7575C27.7096 38.8872 28.1219 38.8731 28.1711 38.9674C28.4522 39.1349 29.0919 39.1207 29.3191 38.9344C29.4761 38.5428 30.186 38.3825 30.5913 38.0877C30.6873 37.9438 30.7178 37.7481 30.8443 37.6325C30.9615 37.5688 30.9849 37.5027 30.8888 37.5027C30.7366 37.5122 30.8888 36.9532 30.3968 37.1773Z" fill="#3B2C1B"/>
    <path d="M11.5721 33.6583C11.3682 33.7785 11.1058 33.7526 10.9606 33.8941C10.9489 34.1323 11.7548 33.8398 11.6095 34.0474C11.4713 34.3186 11.2511 34.7596 11.4854 35.1111C11.6962 35.4342 12.0688 35.3046 11.7665 34.9012C11.7501 34.5144 12.5678 33.2762 11.5721 33.6583Z" fill="#3B2C1B"/>
    <path d="M12.5398 34.1418C12.2962 34.2243 13.0365 34.5687 13.0389 34.6725C12.8983 35.0263 12.1275 35.1325 12.0244 35.4509C12.1017 35.5971 12.978 36.373 13.2404 36.0829C13.5918 36.0216 12.008 35.5381 12.6101 35.3777C12.7976 35.3966 12.6828 35.1655 12.8585 35.182C13.1138 35.1843 13.2029 34.8683 13.3599 34.873C13.8284 34.7904 12.6757 33.9579 12.5422 34.1442L12.5398 34.1418Z" fill="#3B2C1B"/>
    <path d="M14.2465 34.9578C14.1247 35.196 14.7432 35.137 14.5347 34.9294C14.455 34.8516 14.2957 34.8658 14.2465 34.9578Z" fill="#3B2C1B"/>
    <path d="M15.2714 35.2645C14.6294 35.2362 14.3717 36.623 15.248 36.59C16.0563 36.8164 15.8946 35.0121 15.2714 35.2645ZM15.5268 35.7975C15.5127 36.3164 15.0324 36.6537 15.0137 36.1443C14.9598 36.0122 14.838 36.156 14.8989 35.8753C14.9223 35.373 15.515 35.2338 15.5268 35.7975Z" fill="#3B2C1B"/>
    <path d="M16.4616 35.5026C15.6838 35.5616 15.6978 36.5829 16.2578 36.9673C17.0754 37.1984 17.1691 35.38 16.4616 35.5026ZM16.6068 35.946C16.6959 36.1772 16.5342 36.538 16.3679 36.6394C16.1195 36.6206 16.3374 35.3186 16.6068 35.946Z" fill="#3B2C1B"/>
    <path d="M14.0085 35.9862C13.9077 36.3565 14.5473 36.0475 14.1514 35.906C14.053 35.88 14.0343 35.8918 14.0085 35.9862Z" fill="#3B2C1B"/>
    <path d="M10.6904 36.4367C10.3835 36.8164 12.3937 37.2552 12.7943 37.5642C13.7854 37.8166 14.9099 38.8543 15.7698 38.7764C13.9845 37.7434 12.5179 37.083 10.6904 36.4367Z" fill="#3B2C1B"/>
    <path d="M10.4518 38.7435C10.2058 39.0831 13.2024 39.9628 13.7412 40.3119C14.5378 40.4322 14.922 41.2412 15.0322 40.4274C15.1235 40.4274 15.0251 40.267 14.9103 40.2317C13.3289 39.5005 11.8412 39.0383 10.4542 38.7435H10.4518Z" fill="#3B2C1B"/>
    <path d="M12.2858 32.0521C12.0398 32.3917 15.0363 33.2714 15.5752 33.6205C16.3718 33.7408 16.756 34.5499 16.8661 33.7361C16.9575 33.7361 16.8591 33.5757 16.7443 33.5404C15.1629 32.8092 13.6751 32.3469 12.2882 32.0521H12.2858Z" fill="#3B2C1B"/>
    <path d="M32.7089 25.1554C33.0182 25.5328 31.0104 25.9857 30.6121 26.2971C29.6234 26.5565 28.5035 27.6014 27.646 27.5306C29.4242 26.4858 30.8862 25.8159 32.7089 25.1578V25.1554Z" fill="#3B2C1B"/>
    <path d="M33.0537 28.4741C33.3629 28.8515 31.3551 29.3043 30.9568 29.6156C29.9681 29.8751 28.8482 30.9199 27.9907 30.8492C29.769 29.8043 31.2309 29.1344 33.0537 28.4764V28.4741Z" fill="#3B2C1B"/>
    <path d="M32.4044 27.3065C32.6528 27.6462 29.6609 28.5449 29.1268 28.8963C28.3302 29.0213 27.953 29.835 27.8382 29.0212C27.7468 29.0212 27.8452 28.8608 27.96 28.8255C29.5368 28.0825 31.0221 27.6108 32.4068 27.3065H32.4044Z" fill="#3B2C1B"/>
    <path d="M32.7301 30.4553C32.9785 30.7949 29.9866 31.6935 29.4524 32.0449C28.6559 32.1699 28.2787 32.9837 28.1639 32.17C28.0725 32.17 28.1709 32.0096 28.2857 31.9742C29.8624 31.2312 31.3478 30.7595 32.7325 30.4553H32.7301Z" fill="#3B2C1B"/>
    <path d="M39.7053 22.3298C39.895 22.7095 37.8357 23.1977 37.4866 23.436C37.0789 23.5185 36.0762 24.3511 35.7856 24.0799C36.9501 23.3817 38.5268 22.6648 39.7053 22.3275V22.3298Z" fill="#3B2C1B"/>
    <path d="M39.4216 25.646C39.6113 26.0258 37.552 26.514 37.2029 26.7522C36.7952 26.8348 35.7925 27.6673 35.502 27.3961C36.6664 26.6979 38.2431 25.981 39.4216 25.6437V25.646Z" fill="#3B2C1B"/>
    <path d="M39.152 24.4196C39.234 24.8418 36.3312 25.54 35.8931 25.8985C35.7431 26.0117 35.633 26.0211 35.6916 25.7664C35.7502 25.5211 35.5463 25.5447 35.7993 25.3984C36.9825 24.8654 38.1258 24.5564 39.152 24.4196Z" fill="#3B2C1B"/>
    <path d="M38.8825 27.566C38.9645 27.9882 36.0616 28.6863 35.6235 29.0448C35.4736 29.158 35.3635 29.1675 35.422 28.9127C35.4806 28.6674 35.2768 28.691 35.5298 28.5448C36.713 28.0117 37.8563 27.7028 38.8825 27.566Z" fill="#3B2C1B"/>
    <path d="M44.6487 20.7307C44.302 21.2803 43.3273 21.3275 42.758 21.7473C42.5237 21.8393 42.0364 22.2355 42.0317 22.0044C42.4488 21.693 42.9455 21.4832 43.2992 21.285C43.5429 21.1435 43.8123 21.1458 44.0325 20.9878C44.1075 20.9359 44.5738 20.6175 44.6511 20.7307H44.6487Z" fill="#3B2C1B"/>
    <path d="M44.22 23.5116C43.8733 24.0611 42.8986 24.1083 42.3293 24.5281C42.095 24.6201 41.6077 25.0163 41.603 24.7852C42.0201 24.4738 42.5167 24.264 42.8705 24.0658C43.1142 23.9243 43.3836 23.9266 43.6038 23.7686C43.6788 23.7167 44.145 23.3983 44.2224 23.5116H44.22Z" fill="#3B2C1B"/>
    <path d="M44.2245 22.4571C43.9574 22.9194 42.5516 23.1742 42.0386 23.5351C41.7387 23.7733 42.0924 23.2638 42.0573 23.2261C42.1534 22.9784 43.3927 22.5278 43.4654 22.601C43.6762 22.6764 44.0417 22.3392 44.2245 22.4548V22.4571Z" fill="#3B2C1B"/>
    <path d="M44.2245 25.4173C43.9574 25.8795 42.5516 26.1342 42.0386 26.4951C41.7387 26.7333 42.0924 26.2238 42.0573 26.1861C42.1534 25.9385 43.3927 25.488 43.4654 25.5611C43.6762 25.6366 44.0417 25.2993 44.2245 25.4148V25.4173Z" fill="#3B2C1B"/>
    <path d="M11.4149 18.7753V16.9922C11.2884 16.938 11.1572 16.8437 11.2064 16.6856C11.5789 16.964 11.3563 16.6219 11.4149 16.4309C11.3423 15.5134 12.1295 16.0582 12.2162 16.3553C12.1389 16.5959 11.7593 15.7775 11.7382 16.5252C11.6 17.3248 12.1904 16.9426 12.1717 17.4309L11.7382 17.1786V18.9617L11.4149 18.7729V18.7753Z" fill="#3B2C1B"/>
    <path d="M12.7614 19.5893C11.8501 19.1057 12.1382 17.7471 13.2042 18.7212C13.2277 18.358 13.1504 17.9452 12.8879 17.8249C12.2835 17.5395 12.8669 18.4334 12.2507 17.9028C12.3702 16.9074 13.6869 18.1245 13.5252 18.733V20.0066C13.3495 19.95 13.2441 19.7897 13.2534 19.6057C13.1457 19.7237 12.9817 19.719 12.7614 19.5893ZM12.9934 18.7472C11.8758 18.1268 13.0051 20.3464 13.2042 19.1128C13.237 18.9336 13.1644 18.8226 12.9934 18.7472Z" fill="#3B2C1B"/>
    <path d="M13.8766 20.207C14.0031 20.1645 13.5861 17.681 14.1203 18.3815C14.05 19.1433 14.8255 18.096 14.7435 19.0866C13.6283 18.3177 14.699 20.9311 13.8766 20.207Z" fill="#3B2C1B"/>
    <path d="M14.9389 20.8534C14.8288 20.7897 14.7397 20.6223 14.7397 20.4737C14.8499 19.8628 15.4473 21.002 14.9389 20.8534Z" fill="#3B2C1B"/>
    <path d="M17.1522 19.7259C16.5899 22.4808 16.6743 22.7638 16.365 19.7259C15.4443 23.37 15.7629 20.7402 15.5356 18.8816C15.9597 18.1458 15.7395 20.1388 15.8613 20.0373C16.2057 18.6505 16.604 19.9265 16.7188 20.0185C16.8219 19.8015 16.8149 19.1906 17.1757 19.3462C17.9582 21.995 17.1499 25.8465 17.1546 19.7259H17.1522Z" fill="#3B2C1B"/>
    <path d="M18.8602 21.1176C18.9446 22.2309 17.4334 22.212 18.4127 22.9667C18.8813 23.146 19.2327 21.6389 19.4576 22.4196C17.1733 25.7924 17.6771 18.1128 18.8602 21.1176ZM18.0426 21.8487C18.3659 21.8652 18.7548 21.0563 18.4971 20.7591C18.1292 20.9124 18.1105 21.4784 18.0426 21.8487Z" fill="#3B2C1B"/>
</svg>
